<?xml version="1.0" encoding="UTF-8" standalone="no"?>
<!-- Created with Inkscape (http://www.inkscape.org/) -->

<svg
   xmlns:dc="http://purl.org/dc/elements/1.1/"
   xmlns:cc="http://creativecommons.org/ns#"
   xmlns:rdf="http://www.w3.org/1999/02/22-rdf-syntax-ns#"
   xmlns:svg="http://www.w3.org/2000/svg"
   xmlns="http://www.w3.org/2000/svg"
   xmlns:sodipodi="http://sodipodi.sourceforge.net/DTD/sodipodi-0.dtd"
   xmlns:inkscape="http://www.inkscape.org/namespaces/inkscape"
   width="32px"
   height="32px"
   id="svg3631"
   version="1.1"
   inkscape:version="0.46+devel 22040"
   sodipodi:docname="fork.svg"
   inkscape:export-filename="C:\Documents and Settings\shogo\デスクトップ\fork16.png"
   inkscape:export-xdpi="45"
   inkscape:export-ydpi="45">
  <defs
     id="defs3633">
    <inkscape:perspective
       sodipodi:type="inkscape:persp3d"
       inkscape:vp_x="0 : 16 : 1"
       inkscape:vp_y="0 : 1000 : 0"
       inkscape:vp_z="32 : 16 : 1"
       inkscape:persp3d-origin="16 : 10.666667 : 1"
       id="perspective3639" />
    <inkscape:perspective
       id="perspective4167"
       inkscape:persp3d-origin="0.5 : 0.33333333 : 1"
       inkscape:vp_z="1 : 0.5 : 1"
       inkscape:vp_y="0 : 1000 : 0"
       inkscape:vp_x="0 : 0.5 : 1"
       sodipodi:type="inkscape:persp3d" />
    <inkscape:perspective
       id="perspective4167-7"
       inkscape:persp3d-origin="0.5 : 0.33333333 : 1"
       inkscape:vp_z="1 : 0.5 : 1"
       inkscape:vp_y="0 : 1000 : 0"
       inkscape:vp_x="0 : 0.5 : 1"
       sodipodi:type="inkscape:persp3d" />
    <inkscape:perspective
       id="perspective4202"
       inkscape:persp3d-origin="0.5 : 0.33333333 : 1"
       inkscape:vp_z="1 : 0.5 : 1"
       inkscape:vp_y="0 : 1000 : 0"
       inkscape:vp_x="0 : 0.5 : 1"
       sodipodi:type="inkscape:persp3d" />
  </defs>
  <sodipodi:namedview
     id="base"
     pagecolor="#ffffff"
     bordercolor="#666666"
     borderopacity="1.0"
     inkscape:pageopacity="0.0"
     inkscape:pageshadow="2"
     inkscape:zoom="18.866667"
     inkscape:cx="16"
     inkscape:cy="16"
     inkscape:current-layer="layer1"
     showgrid="true"
     inkscape:grid-bbox="true"
     inkscape:document-units="px"
     inkscape:window-width="1419"
     inkscape:window-height="818"
     inkscape:window-x="176"
     inkscape:window-y="176"
     inkscape:window-maximized="0" />
  <metadata
     id="metadata3636">
    <rdf:RDF>
      <cc:Work
         rdf:about="">
        <dc:format>image/svg+xml</dc:format>
        <dc:type
           rdf:resource="http://purl.org/dc/dcmitype/StillImage" />
        <dc:title></dc:title>
      </cc:Work>
    </rdf:RDF>
  </metadata>
  <g
     id="layer1"
     inkscape:label="Layer 1"
     inkscape:groupmode="layer">
    <rect
       style="fill:#eba310;fill-opacity:1;stroke:#ffcb5d;stroke-width:0.96774196999999995;stroke-opacity:1"
       id="rect3641"
       width="29.032259"
       height="29.032257"
       x="1.483871"
       y="1.4838719"
       ry="1.9767632" />
    <path
       style="fill:#ffffff;fill-opacity:1;stroke:none"
       d="m 10.136572,3.2683678 c -0.8906993,0 -1.6103199,0.5515023 -1.6103199,1.2249278 l 0,4.5355432 -1.2077399,0 0,-3.9396324 c 0,-0.6734255 -0.6706419,-1.2249277 -1.4895458,-1.2249277 l -0.241548,0 c -0.8189039,0 -1.4895458,0.5515022 -1.4895458,1.2249277 l 0,4.8666043 c 0,0.059954 0.030161,0.1079513 0.040258,0.1655303 l 0,1.721521 0,0.264849 c 0.1509764,1.408723 1.6795305,2.482961 3.5829616,2.482961 l 0,12.547233 c 0,0.925951 0.9271764,1.655308 2.0531574,1.655308 l 0.7649024,0 c 1.125982,0 2.0129,-0.729357 2.0129,-1.655308 l 0,-12.547233 c 1.904311,0 3.473469,-1.106406 3.62322,-2.516068 0.0079,-0.07384 0,-0.156318 0,-0.231742 l 0,-1.8870513 0,-0.9269719 0,-3.9396324 c 0,-0.6734255 -0.670642,-1.2249277 -1.489546,-1.2249277 l -0.241548,0 c -0.818904,0 -1.489546,0.5515022 -1.489546,1.2249277 l 0,3.9396324 -1.167482,0 0,-4.5355432 c 0,-0.6734255 -0.759879,-1.2249278 -1.650578,-1.2249278 z"
       id="rect4153" />
    <rect
       style="fill:#ffffff;fill-opacity:1;stroke:none"
       id="rect4225"
       width="4.3479114"
       height="17.977924"
       x="21.849689"
       y="10.769031"
       ry="1.465277" />
    <path
       style="fill:#ffffff;fill-opacity:1;stroke:none"
       d="m 26.200105,17.289354 0,-12.9454855 c 0,0 -4.1526,-1.7535782 -4.952229,0.6386215 -1.746934,5.226192 -2.262423,9.418678 -2.262423,9.418678 -1.122465,2.533048 4.048532,2.426341 7.214652,2.888186 z"
       id="path4229"
       sodipodi:nodetypes="ccscc" />
  </g>
</svg>
